<?xml version="1.0" encoding="UTF-8"?>
<svg xmlns="http://www.w3.org/2000/svg" viewBox="0 0 940 590" width="940" height="590">
  <defs>
    <style type="text/css"><![CDATA[
      text          { fill: #111111; font-family: 'SF Mono', Menlo, Monaco, Consolas, 'Courier New', monospace; }
      .mono         { font-family: 'SF Mono', Menlo, Monaco, Consolas, 'Courier New', monospace; }
      .title        { font-size: 40px; font-weight: 500; }
      .section-label{ font-size: 17px; letter-spacing: 4px; fill: #6b7280; }
      .zone-label   { font-size: 16px; letter-spacing: 3px; fill: #6b7280; }
      .rung         { font-size: 15px; fill: #6b7280; }
      .sub          { font-size: 13px; letter-spacing: 1px; fill: #9aa0a8; }
      .chip         { font-size: 16px; fill: #475569; }
      .caption      { font-size: 22px; fill: #111111; }
    ]]></style>
    <filter id="wash-a" x="-20%" y="-25%" width="140%" height="150%">
      <feTurbulence type="fractalNoise" baseFrequency="0.013" numOctaves="3" seed="2"/>
      <feDisplacementMap in="SourceGraphic" scale="16"/>
      <feGaussianBlur stdDeviation="1.6"/>
    </filter>
    <filter id="wash-b" x="-20%" y="-25%" width="140%" height="150%">
      <feTurbulence type="fractalNoise" baseFrequency="0.015" numOctaves="3" seed="9"/>
      <feDisplacementMap in="SourceGraphic" scale="14"/>
      <feGaussianBlur stdDeviation="1.8"/>
    </filter>
    <filter id="wash-c" x="-20%" y="-25%" width="140%" height="150%">
      <feTurbulence type="fractalNoise" baseFrequency="0.011" numOctaves="3" seed="14"/>
      <feDisplacementMap in="SourceGraphic" scale="18"/>
      <feGaussianBlur stdDeviation="2"/>
    </filter>
    <filter id="ink-a" x="-5%" y="-5%" width="110%" height="110%">
      <feTurbulence type="fractalNoise" baseFrequency="0.018" numOctaves="2" seed="5"/>
      <feDisplacementMap in="SourceGraphic" scale="3"/>
    </filter>
    <filter id="ink-b" x="-5%" y="-5%" width="110%" height="110%">
      <feTurbulence type="fractalNoise" baseFrequency="0.022" numOctaves="2" seed="13"/>
      <feDisplacementMap in="SourceGraphic" scale="2.8"/>
    </filter>
    <filter id="ink-c" x="-5%" y="-5%" width="110%" height="110%">
      <feTurbulence type="fractalNoise" baseFrequency="0.025" numOctaves="2" seed="21"/>
      <feDisplacementMap in="SourceGraphic" scale="2.5"/>
    </filter>
  </defs>

  <!-- transparent background (no fill rect) -->

  <!-- Title + hand-drawn underline -->
  <text x="470" y="48" text-anchor="middle" class="title">Two axes of knowledge change</text>
  <path d="M 196 66 Q 333 62 470 66 Q 607 70 744 65" fill="none" stroke="#111111" stroke-width="2.4" stroke-linecap="round" filter="url(#ink-b)"/>

  <!-- y-axis title (horizontal, top-left of the plane) -->
  <text x="168" y="108" class="mono section-label">EPISTEMIC STATUS &#8593;</text>

  <!-- faint "breaking" column wash (right third) -->
  <rect x="617" y="130" width="225" height="322" fill="#9c3a34" opacity="0.10" filter="url(#wash-b)"/>
  <!-- faint "machine-checked" band wash (top row) -->
  <rect x="168" y="130" width="674" height="78" fill="#a9c39c" opacity="0.16" filter="url(#wash-c)"/>

  <!-- plane frame (rounded rect, inked) -->
  <path d="M 182 130 L 828 130 A 14 14 0 0 1 842 144 L 842 438 A 14 14 0 0 1 828 452 L 182 452 A 14 14 0 0 1 168 438 L 168 144 A 14 14 0 0 1 182 130 Z" fill="none" stroke="#9aa0a8" stroke-width="1.3" filter="url(#ink-a)"/>

  <!-- column dividers (impact zones): wavy polylines, no filter -->
  <path d="M 393 130 L 393.6 170 L 392.4 210 L 393.5 250 L 392.5 290 L 393.4 330 L 392.5 370 L 393.6 410 L 393 452" fill="none" stroke="#b9bec5" stroke-width="1.3" stroke-linecap="round"/>
  <path d="M 617 130 L 617.6 170 L 616.4 210 L 617.5 250 L 616.5 290 L 617.4 330 L 616.5 370 L 617.6 410 L 617 452" fill="none" stroke="#b9bec5" stroke-width="1.3" stroke-linecap="round"/>

  <!-- status rungs (ladder): faint wavy horizontals, no filter -->
  <path d="M 168 245 L 236 245.5 L 304 244.5 L 372 245.4 L 440 244.6 L 508 245.5 L 576 244.6 L 644 245.4 L 712 244.6 L 780 245.5 L 842 245" fill="none" stroke="#ced2d8" stroke-width="1.1" stroke-linecap="round"/>
  <path d="M 168 347 L 236 347.5 L 304 346.5 L 372 347.4 L 440 346.6 L 508 347.5 L 576 346.6 L 644 347.4 L 712 346.6 L 780 347.5 L 842 347" fill="none" stroke="#ced2d8" stroke-width="1.1" stroke-linecap="round"/>

  <!-- status rung labels (left) -->
  <text x="158" y="192" text-anchor="end" class="mono rung">machine-checked</text>
  <text x="158" y="302" text-anchor="end" class="mono rung">proved</text>
  <text x="158" y="406" text-anchor="end" class="mono rung">conjectured</text>

  <!-- commit chips: (impact &#8594;, status &#8593;) -->
  <g>
    <circle cx="505" cy="192" r="9" fill="#a9c39c" opacity="0.85" stroke="#111111" stroke-width="1.4" filter="url(#ink-b)"/>
    <text x="520" y="197" class="mono chip">formalize(thm)</text>
  </g>
  <g>
    <circle cx="468" cy="298" r="9" fill="#dcc085" opacity="0.85" stroke="#111111" stroke-width="1.4" filter="url(#ink-c)"/>
    <text x="483" y="303" class="mono chip">axiomatize~(lemma)</text>
  </g>
  <g>
    <circle cx="262" cy="382" r="9" fill="#abc1d2" opacity="0.85" stroke="#111111" stroke-width="1.4" filter="url(#ink-a)"/>
    <text x="277" y="387" class="mono chip">conjecture(claim)</text>
  </g>
  <g>
    <circle cx="744" cy="420" r="9" fill="#d3a3ad" opacity="0.9" stroke="#111111" stroke-width="1.4" filter="url(#ink-b)"/>
    <text x="729" y="425" text-anchor="end" class="mono chip">refute(claim)!</text>
  </g>

  <!-- x-axis: impact zone tags + subs + title (bottom) -->
  <text x="280" y="478" text-anchor="middle" class="mono zone-label">REPAIR</text>
  <text x="505" y="478" text-anchor="middle" class="mono zone-label">ADDITIVE</text>
  <text x="730" y="478" text-anchor="middle" class="mono zone-label">BREAKING</text>
  <text x="280" y="497" text-anchor="middle" class="mono sub">patch</text>
  <text x="505" y="497" text-anchor="middle" class="mono sub">minor</text>
  <text x="730" y="497" text-anchor="middle" class="mono sub">major · refute · retract</text>
  <text x="505" y="525" text-anchor="middle" class="mono section-label">DEPENDENCY IMPACT &#8594;</text>

  <!-- caption -->
  <text x="470" y="571" text-anchor="middle" class="caption">dependency impact (&#8594;) and epistemic status (&#8593;) are independent</text>
</svg>
